<?xml version="1.0" encoding="UTF-8"?>
<svg xmlns="http://www.w3.org/2000/svg" viewBox="0 0 512 512" width="512" height="512">
  <g transform="matrix(0.530450,0,0,-0.530450,-13.469,453.328)" fill="#7773f3">
    <path d="M762 546 615 581C614 567 611 545 607 524H601C554 524 506 519 462 510L468 582C592 587 726 600 820 617L819 756C706 728 605 716 487 712L495 754C499 771 503 789 510 812L354 816C355 796 353 769 351 749L346 709H322C251 709 163 718 127 723L131 585C181 583 259 578 317 578H333C329 541 326 503 324 465C183 397 81 262 81 133C81 22 148 -24 225 -24C276 -24 327 -10 372 10L383 -24L522 17L500 88C572 147 650 248 703 379C757 354 785 309 785 258C785 177 725 77 525 55L605 -72C858 -34 935 110 935 251C935 370 858 459 745 500ZM568 401C540 337 505 288 467 247C462 288 459 333 458 383C490 392 526 399 568 401ZM342 147C313 131 285 123 263 123C233 123 223 138 223 166C223 209 261 272 323 319C326 259 333 200 342 147Z"/>
  </g>
</svg>
